# xmcd CD database file
#
# Track frame offsets:
#	183
#	13583
#	25543
#	39958
#	54963
#	67538
#	85385
#	100643
#	112755
#	125985
#	139848
#	150278
#	169783
#	179690
#	190628
#	202458
#	212808
#	227683
#	239063
#	250635
#
# Disc length: 3474 seconds
#
# Revision: 4
# Processed by: cddbd v1.5.2PL0 Copyright (c) Steve Scherf et al.
# Submitted via: CDex 1.70beta2
#
DISCID=040d9014
DTITLE=Kenny Rogers - The Best Of Kenny Rogers and The First Edition
DYEAR=1989
DGENRE=Pop-Folk
TTITLE0=Kenny Rogers - Ruby, Don't Take Your Love To Town
TTITLE1=Me And Bobby Mcgee
TTITLE2=Sunshine
TTITLE3=Just Dropped In
TTITLE4=Reuben James
TTITLE5=Something's Burning
TTITLE6=For The Good Times
TTITLE7=Elvira
TTITLE8=Kenny Rogers - Shine On Ruby Mountain
TTITLE9=Loser
TTITLE10=Ticket To Nowhere
TTITLE11=Lay It Down
TTITLE12=New Design
TTITLE13=Always Leaving, Always Gone
TTITLE14=What Am I Gonna Do
TTITLE15=Goodtime Liberator
TTITLE16=All God's Lonely Children
TTITLE17=If Wishes Were Horses
TTITLE18=Girl Get A Hold Of Yourself
TTITLE19=Once Again She's All Alone
EXTD=YEAR: 1989
EXTT0=
EXTT1=
EXTT2=
EXTT3=
EXTT4=
EXTT5=
EXTT6=
EXTT7=
EXTT8=
EXTT9=
EXTT10=
EXTT11=
EXTT12=
EXTT13=
EXTT14=
EXTT15=
EXTT16=
EXTT17=
EXTT18=
EXTT19=
PLAYORDER=
